HIERARCHY
ROOT Hips
{
	OFFSET 0.00000 0.00000 0.00000
	CHANNELS 6 Xposition Yposition Zposition Zrotation Yrotation Xrotation 
	JOINT LHipJoint
	{
		OFFSET 0 0 0
		CHANNELS 3 Zrotation Yrotation Xrotation
		JOINT LeftHip
		{
			OFFSET 1.48831 -1.59570 0.95625
			CHANNELS 3 Zrotation Yrotation Xrotation
			JOINT LeftKnee
			{
				OFFSET 2.20856 -6.06797 0.00000
				CHANNELS 3 Zrotation Yrotation Xrotation
				JOINT LeftAnkle
				{
					OFFSET 2.62924 -7.22379 0.00000
					CHANNELS 3 Zrotation Yrotation Xrotation
					JOINT LeftToe
					{
						OFFSET 0.16802 -0.46163 2.41673
						CHANNELS 3 Zrotation Yrotation Xrotation
						End Site
						{
							OFFSET 0.00000 -0.00000 1.23760
						}
					}
				}
			}
		}
	}
	JOINT RHipJoint
	{
		OFFSET 0 0 0
		CHANNELS 3 Zrotation Yrotation Xrotation
		JOINT RightHip
		{
			OFFSET -1.56796 -1.59570 0.95625
			CHANNELS 3 Zrotation Yrotation Xrotation
			JOINT RightKnee
			{
				OFFSET -2.29239 -6.29829 0.00000
				CHANNELS 3 Zrotation Yrotation Xrotation
				JOINT RightAnkle
				{
					OFFSET -2.66963 -7.33475 0.00000
					CHANNELS 3 Zrotation Yrotation Xrotation
					JOINT RightToe
					{
						OFFSET -0.18185 -0.49964 2.34359
						CHANNELS 3 Zrotation Yrotation Xrotation
						End Site
						{
							OFFSET -0.00000 -0.00000 1.20477
						}
					}
				}
			}
		}
	}
	JOINT lowerback
	{
		OFFSET 0 0 0
		CHANNELS 3 Zrotation Yrotation Xrotation
		JOINT Chest
		{
			OFFSET 0.03505 2.15832 -0.34324
			CHANNELS 3 Zrotation Yrotation Xrotation
			JOINT Chest2
			{
				OFFSET -0.01089 2.17963 0.04689
				CHANNELS 3 Zrotation Yrotation Xrotation
				JOINT lowerneck
				{
					OFFSET 0 0 0
					CHANNELS 3 Zrotation Yrotation Xrotation
					JOINT Neck
					{
						OFFSET 0.04686 1.69404 0.22159
						CHANNELS 3 Zrotation Yrotation Xrotation
						JOINT Head
						{
							OFFSET 0.00265 1.69305 -0.01513
							CHANNELS 3 Zrotation Yrotation Xrotation
							End Site
							{
								OFFSET -0.00415 1.80215 -0.03034
							}
						}
					}
				}
				JOINT LeftCollar
				{
					OFFSET 0 0 0
					CHANNELS 3 Zrotation Yrotation Xrotation
					JOINT LeftShoulder
					{
						OFFSET 3.67184 1.11724 -0.19002
CHANNELS 3 Zrotation Xrotation Yrotation
						JOINT LeftElbow
						{
OFFSET 0 -5.177140 -0.000000
CHANNELS 3 Zrotation Xrotation Yrotation
							JOINT LeftWrist
							{
OFFSET 0 -3.436790 -0.000000
CHANNELS 3 Zrotation Xrotation Yrotation
								JOINT lhand
								{
									OFFSET 0 0 0
CHANNELS 3 Zrotation Xrotation Yrotation
									JOINT LFingers
									{
OFFSET 0 -0.573120 -0.000000
CHANNELS 3 Zrotation Xrotation Yrotation
										End Site
										{
OFFSET 0 -0.462060 -0.000000
										}
									}
								}
								JOINT LThumb
								{
OFFSET 0 0.000000 0.000000
CHANNELS 3 Zrotation Xrotation Yrotation
									End Site
									{
OFFSET 0 -0.469120 0.469120
									}
								}
							}
						}
					}
				}
				JOINT RightCollar
				{
					OFFSET 0 0 0
					CHANNELS 3 Zrotation Yrotation Xrotation
					JOINT RightShoulder
					{
						OFFSET -3.59596 0.95831 -0.26050
CHANNELS 3 Zrotation Xrotation Yrotation
						JOINT RightElbow
						{
OFFSET 0 -5.239080 -0.000000
CHANNELS 3 Zrotation Xrotation Yrotation
							JOINT RightWrist
							{
OFFSET 0 -3.464850 -0.000000
CHANNELS 3 Zrotation Xrotation Yrotation
								JOINT rhand
								{
									OFFSET 0 0 0
CHANNELS 3 Zrotation Xrotation Yrotation
									JOINT RFingers
									{
OFFSET 0 -0.608750 -0.000000
CHANNELS 3 Zrotation Xrotation Yrotation
										End Site
										{
OFFSET 0 -0.490790 -0.000000
										}
									}
								}
								JOINT RThumb
								{
OFFSET 0 0.000000 0.000000
CHANNELS 3 Zrotation Xrotation Yrotation
									End Site
									{
OFFSET 0 -0.498290 0.498290
									}
								}
							}
						}
					}
				}
			}
		}
	}
}
MOTION
Frames: 12
Frame Time: 0.008333333333333333
3.571472 16.393190 -22.853823 4.807393 -134.145376 1.482690 0.000000 0.000000 0.000000 -7.704370 -5.580537 -15.651264 2.194234 9.259468 26.610381 0.518065 1.165397 -14.067638 0.605987 -4.982894 -13.859767 0.000000 0.000000 0.000000 10.648566 14.864000 -14.346251 -4.229211 -12.458731 37.375579 0.352939 -19.286616 -24.261215 -0.173273 2.680649 -7.390893 0.365577 0.711914 9.805847 -2.398622 -0.108633 11.602750 -2.784815 -0.395902 6.734343 4.150012 3.259169 -13.872699 -2.780923 3.566380 24.704254 -1.270543 1.456522 10.310731 0.000000 0.000000 0.000000 22.721468 -14.516294 -60.963470 107.321926 -58.835114 74.942512 13.100544 -57.546764 10.499177 0.000000 0.000000 0.000000 -7.125000 0.000000 0.000000 -9.858500 19.289125 -6.139491 0.000000 0.000000 0.000000 -37.957253 -36.673893 68.027925 -118.028865 -56.812294 -84.013900 -42.095692 -40.596939 4.932549 0.000000 0.000000 0.000000 7.125000 0.000000 0.000000 -12.961316 36.343678 -2.817345
3.460419 16.405684 -22.868928 5.334898 -133.514272 0.859810 0.000000 0.000000 0.000000 -7.618478 -5.502284 -15.240146 2.188837 9.248857 26.576794 0.534719 0.557330 -14.027641 0.621494 -5.045134 -14.037366 0.000000 0.000000 0.000000 10.175409 14.767473 -16.198487 -5.013473 -13.398246 40.879389 0.690907 -19.241968 -20.628163 -0.264508 3.307768 -9.136916 -0.272526 0.804441 9.433620 -2.536857 0.001605 11.654696 -2.581594 -0.379589 6.999100 3.649796 3.184549 -13.519957 -2.629075 3.564313 24.390896 -1.134600 1.433301 10.114114 0.000000 0.000000 0.000000 22.086264 -13.692275 -60.801160 109.441807 -58.522324 76.753542 13.024263 -55.154832 10.741160 0.000000 0.000000 0.000000 -7.125000 0.000000 0.000000 -9.904784 19.049069 -6.222892 0.000000 0.000000 0.000000 -38.024440 -35.771995 67.487091 -120.568924 -56.156073 -86.131783 -41.944321 -39.425335 4.899077 0.000000 0.000000 0.000000 7.125000 0.000000 0.000000 -12.828266 36.289997 -2.804467
3.370504 16.407528 -22.895037 5.457349 -133.515823 0.355114 0.000000 0.000000 0.000000 -7.766848 -4.919083 -14.327940 2.114158 9.099807 26.108173 0.552259 0.083647 -14.072757 0.619377 -5.036535 -14.012767 0.000000 0.000000 0.000000 9.428476 15.043251 -18.255343 -5.939678 -14.369003 44.738105 0.889870 -18.818073 -16.910135 -0.393860 4.029344 -11.159251 -1.175576 0.971227 9.101957 -2.792967 0.183691 11.785872 -2.360172 -0.356016 7.331860 3.320635 3.282800 -13.368656 -3.136144 3.934494 23.944109 -1.208608 1.527104 9.940219 0.000000 0.000000 0.000000 22.234974 -13.150747 -60.865283 110.878174 -58.287085 77.977064 13.303988 -54.220758 11.489036 0.000000 0.000000 0.000000 -7.125000 0.000000 0.000000 -9.688845 18.278242 -6.251320 0.000000 0.000000 0.000000 -37.973989 -35.348104 67.475398 -122.802194 -55.515620 -87.979844 -42.265090 -38.437614 5.002262 0.000000 0.000000 0.000000 7.125000 0.000000 0.000000 -13.115435 36.446101 -2.818793
3.302329 16.401732 -22.931772 5.237145 -134.007169 -0.018847 0.000000 0.000000 0.000000 -8.070888 -4.024316 -13.111095 2.006671 8.879912 25.420383 0.567706 -0.196042 -14.170681 0.614284 -5.016037 -13.954189 0.000000 0.000000 0.000000 8.695399 15.339859 -20.063622 -6.771290 -15.136022 48.003626 0.914270 -17.887628 -13.779465 -0.318087 3.624330 -10.022178 -1.745025 1.324714 9.064762 -3.400851 0.631191 11.758829 -2.700372 -0.160863 7.342191 3.459833 3.338110 -13.211870 -3.792020 4.147983 23.780287 -1.435884 1.566623 9.877911 0.000000 0.000000 0.000000 23.150492 -12.908033 -61.317746 111.297106 -58.214844 78.333266 13.479194 -52.348449 11.839902 0.000000 0.000000 0.000000 -7.125000 0.000000 0.000000 -9.559149 17.912991 -6.243341 0.000000 0.000000 0.000000 -37.618532 -34.920707 67.469587 -124.056437 -55.128397 -89.011291 -42.651407 -37.460378 4.250702 0.000000 0.000000 0.000000 7.125000 0.000000 0.000000 -13.317582 35.481621 -3.185630
3.253758 16.384990 -22.999538 4.885638 -134.498184 -0.331234 0.000000 0.000000 0.000000 -8.331966 -3.341334 -11.966601 1.958881 8.779864 25.109143 0.592265 -0.220946 -14.467183 0.623832 -5.054228 -14.063278 0.000000 0.000000 0.000000 8.401361 14.955539 -20.643180 -6.940798 -15.281728 48.649833 0.361383 -13.307663 -13.517274 -0.308467 3.569096 -9.867509 -2.264646 1.637729 8.925815 -3.950069 1.035608 11.679357 -3.004124 0.017083 7.352410 3.353039 3.440743 -13.157474 -4.181376 4.395733 24.102281 -1.527990 1.612242 10.000165 0.000000 0.000000 0.000000 23.678096 -12.996298 -61.602226 110.687764 -58.319440 77.815022 13.509699 -50.993518 12.111287 0.000000 0.000000 0.000000 -7.125000 0.000000 0.000000 -9.532624 17.636761 -6.284298 0.000000 0.000000 0.000000 -37.332312 -34.657472 67.680932 -124.766143 -54.899995 -89.592799 -43.064968 -36.435540 4.061628 0.000000 0.000000 0.000000 7.125000 0.000000 0.000000 -13.629828 35.254098 -3.341482
3.215783 16.356220 -23.105684 4.722282 -134.840486 -0.517082 0.000000 0.000000 0.000000 -8.314151 -3.235962 -11.269185 2.011711 8.890378 25.453122 0.638925 0.085698 -15.137659 0.638850 -5.113722 -14.233230 0.000000 0.000000 0.000000 8.909532 14.477423 -19.637956 -5.995828 -14.423433 44.963342 -0.281780 -9.179475 -17.212183 -0.462792 4.363565 -12.101883 -2.701207 1.713177 8.153663 -4.179686 1.190972 11.571191 -3.001799 0.078098 7.671177 2.724954 3.727548 -13.084053 -4.452483 4.982548 24.599856 -1.450333 1.766565 10.181763 0.000000 0.000000 0.000000 23.153884 -12.928632 -61.261047 109.956934 -58.440315 77.192631 13.575135 -50.062404 12.340172 0.000000 0.000000 0.000000 -7.125000 0.000000 0.000000 -9.483385 17.401150 -6.300592 0.000000 0.000000 0.000000 -37.598449 -34.837985 68.008562 -125.237761 -54.744480 -89.978185 -43.469723 -35.992264 4.064426 0.000000 0.000000 0.000000 7.125000 0.000000 0.000000 -13.966720 35.279552 -3.419317
3.180989 16.312539 -23.245398 4.945365 -134.891304 -1.138576 0.000000 0.000000 0.000000 -7.969331 -3.726534 -10.375610 2.120503 9.112534 26.148167 0.710141 0.710461 -16.193589 0.660480 -5.197849 -14.473693 0.000000 0.000000 0.000000 10.333409 14.024792 -17.264001 -4.673326 -13.005777 39.390848 -0.304864 -11.233719 -19.777764 -0.526885 4.651741 -12.917779 -2.320222 1.652039 7.559494 -4.425223 1.207571 11.288375 -3.464373 0.150156 7.711597 2.445438 4.022645 -13.006378 -4.680960 5.481744 25.353083 -1.430645 1.902256 10.461903 0.000000 0.000000 0.000000 22.889169 -12.298199 -61.091637 110.171334 -58.405377 77.375324 13.456945 -49.682690 12.278184 0.000000 0.000000 0.000000 -7.125000 0.000000 0.000000 -9.566274 17.471415 -6.342312 0.000000 0.000000 0.000000 -37.935391 -34.946928 68.125577 -125.731599 -54.578358 -90.381138 -43.618709 -35.798943 4.259542 0.000000 0.000000 0.000000 7.125000 0.000000 0.000000 -14.125928 35.548170 -3.365135
3.178395 16.263945 -23.411264 5.464932 -134.981945 -1.768724 0.000000 0.000000 0.000000 -7.148635 -3.885835 -9.759980 2.210643 9.291778 26.712352 0.784290 0.862163 -17.065285 0.678248 -5.265862 -14.668409 0.000000 0.000000 0.000000 12.328513 12.973844 -15.128836 -4.096046 -12.287080 36.755478 -0.224853 -14.602914 -23.003559 -0.412863 4.124740 -11.427870 -1.475422 1.652480 6.433991 -4.627654 1.368745 10.889070 -4.135170 0.344529 7.950531 2.709386 4.213813 -12.950373 -4.975069 5.740267 25.917523 -1.555239 1.981063 10.689325 0.000000 0.000000 0.000000 23.077091 -11.800265 -61.251959 110.891697 -58.284782 77.988548 13.197257 -49.456603 12.106117 0.000000 0.000000 0.000000 -7.125000 0.000000 0.000000 -9.749647 17.661746 -6.426021 0.000000 0.000000 0.000000 -38.405328 -35.043928 67.995981 -126.418821 -54.341550 -90.940307 -43.483656 -35.260349 4.384517 0.000000 0.000000 0.000000 7.125000 0.000000 0.000000 -14.035843 35.707091 -3.286558
3.192584 16.231676 -23.579939 5.035463 -135.494743 -2.062226 0.000000 0.000000 0.000000 -7.141282 -3.851590 -8.169030 2.154085 9.179876 26.359743 0.819263 1.471222 -17.691039 0.645424 -5.139512 -14.306895 0.000000 0.000000 0.000000 13.255171 13.031069 -12.637730 -3.707363 -11.760391 34.889643 -0.413766 -15.448213 -25.684941 -0.366789 3.890460 -10.768694 -0.982663 1.708921 5.674495 -4.907780 1.545706 10.496839 -4.694339 0.508009 7.992366 2.988106 4.359982 -12.806376 -5.192536 5.938561 25.803820 -1.655558 2.075944 10.645353 0.000000 0.000000 0.000000 22.941145 -11.187859 -60.980325 111.183022 -58.234684 78.236326 11.857204 -48.775612 11.470188 0.000000 0.000000 0.000000 -7.125000 0.000000 0.000000 -10.697937 18.380141 -6.900208 0.000000 0.000000 0.000000 -38.612264 -35.299654 68.228012 -127.018768 -54.129360 -91.427102 -43.420950 -34.600564 4.467771 0.000000 0.000000 0.000000 7.125000 0.000000 0.000000 -13.998065 35.814099 -3.239694
3.219616 16.216551 -23.706779 4.899974 -135.975083 -2.353659 0.000000 0.000000 0.000000 -6.945379 -3.659452 -6.959775 2.072523 9.015557 25.844052 0.827742 2.032406 -18.036077 0.611759 -5.005838 -13.925318 0.000000 0.000000 0.000000 13.578658 12.475303 -11.762282 -3.573129 -11.569532 34.225750 -0.490118 -14.527787 -25.254722 -0.440674 4.259355 -11.807620 -0.108829 1.556508 5.040515 -4.860234 1.434271 10.101002 -5.120240 0.547830 7.937840 3.341149 4.495753 -12.975354 -5.497609 6.147794 25.434307 -1.788517 2.185037 10.576030 0.000000 0.000000 0.000000 22.308858 -10.227602 -60.231602 109.491357 -58.514649 76.795890 10.978558 -46.490366 10.971698 0.000000 0.000000 0.000000 -7.125000 0.000000 0.000000 -11.329590 18.924071 -7.184119 0.000000 0.000000 0.000000 -39.133511 -35.903459 67.855095 -128.004029 -53.769461 -92.223658 -43.168282 -34.585656 4.572444 0.000000 0.000000 0.000000 7.125000 0.000000 0.000000 -13.804782 35.937719 -3.149947
3.230580 16.211263 -23.804525 5.212877 -136.374174 -2.903520 0.000000 0.000000 0.000000 -6.520585 -3.601895 -5.832650 2.000034 8.866070 25.377339 0.844733 2.418534 -18.397345 0.572522 -4.845874 -13.469382 0.000000 0.000000 0.000000 13.912133 10.962356 -11.825889 -3.584262 -11.585541 34.281228 -0.569801 -12.950747 -24.202338 -0.491588 4.495451 -12.474917 1.078768 1.207385 4.278481 -4.392886 1.043005 9.811857 -5.284373 0.459866 8.040516 3.738941 4.646742 -13.099725 -5.792238 6.367268 24.804659 -1.920152 2.316770 10.406315 0.000000 0.000000 0.000000 21.789131 -9.265879 -59.961124 104.101726 -59.234542 72.181037 11.459192 -44.098900 11.456893 0.000000 0.000000 0.000000 -7.125000 0.000000 0.000000 -10.975486 18.415084 -7.077286 0.000000 0.000000 0.000000 -40.091883 -36.821759 66.690242 -130.101252 -52.954385 -93.906694 -42.831086 -35.723813 4.789165 0.000000 0.000000 0.000000 7.125000 0.000000 0.000000 -13.558327 36.203188 -3.000921
3.251479 16.205640 -23.900529 5.038337 -136.786117 -3.028015 0.000000 0.000000 0.000000 -6.445071 -3.497532 -4.720779 1.879367 8.610221 24.583377 0.850513 2.792380 -18.645463 0.521229 -4.627116 -12.847919 0.000000 0.000000 0.000000 14.150809 10.458445 -11.823467 -3.647904 -11.676496 34.596926 -0.678954 -12.258063 -24.418343 -0.451623 4.311115 -11.953769 1.358880 0.842263 3.467802 -3.721779 0.602827 9.530970 -4.724356 0.265278 8.139410 3.965652 4.689541 -13.185770 -5.588779 6.345258 24.235490 -1.879044 2.378453 10.214988 0.000000 0.000000 0.000000 21.755189 -8.555105 -60.153686 96.404614 -59.843012 65.543587 11.206580 -44.368430 11.267751 0.000000 0.000000 0.000000 -7.125000 0.000000 0.000000 -11.158516 18.617163 -7.148964 0.000000 0.000000 0.000000 -41.389662 -37.843354 65.094604 -132.742750 -51.827332 -95.999428 -42.413910 -36.425815 4.920116 0.000000 0.000000 0.000000 7.125000 0.000000 0.000000 -13.228059 36.348326 -2.876431
